<svg xmlns="http://www.w3.org/2000/svg" width="1440" height="900"><path d="M741,473L671,479L736,552Z" fill="#72a0af" stroke="#72a0af" stroke-width="1.51"/><path d="M671,479L672,588L736,552Z" fill="#74a1af" stroke="#74a1af" stroke-width="1.51"/><path d="M671,479L604,511L672,588Z" fill="#719eae" stroke="#719eae" stroke-width="1.51"/><path d="M741,473L672,390L671,479Z" fill="#6e9bad" stroke="#6e9bad" stroke-width="1.51"/><path d="M671,479L566,430L604,511Z" fill="#6c99ad" stroke="#6c99ad" stroke-width="1.51"/><path d="M744,398L672,390L741,473Z" fill="#6d9aae" stroke="#6d9aae" stroke-width="1.51"/><path d="M736,552L833,467L741,473Z" fill="#75a2af" stroke="#75a2af" stroke-width="1.51"/><path d="M741,473L833,467L744,398Z" fill="#719eae" stroke="#719eae" stroke-width="1.51"/><path d="M672,588L791,648L736,552Z" fill="#7aa7b1" stroke="#7aa7b1" stroke-width="1.51"/><path d="M736,552L855,551L833,467Z" fill="#78a5b0" stroke="#78a5b0" stroke-width="1.51"/><path d="M574,571L649,637L672,588Z" fill="#75a3b0" stroke="#75a3b0" stroke-width="1.51"/><path d="M604,511L574,571L672,588Z" fill="#729fae" stroke="#729fae" stroke-width="1.51"/><path d="M791,648L855,551L736,552Z" fill="#7ba9b1" stroke="#7ba9b1" stroke-width="1.51"/><path d="M649,637L791,648L672,588Z" fill="#7aa8b0" stroke="#7aa8b0" stroke-width="1.51"/><path d="M672,390L566,430L671,479Z" fill="#6a97ad" stroke="#6a97ad" stroke-width="1.51"/><path d="M604,511L502,467L574,571Z" fill="#6c9aad" stroke="#6c9aad" stroke-width="1.51"/><path d="M649,637L662,727L791,648Z" fill="#7dabb1" stroke="#7dabb1" stroke-width="1.51"/><path d="M574,571L570,641L649,637Z" fill="#75a3af" stroke="#75a3af" stroke-width="1.51"/><path d="M480,585L570,641L574,571Z" fill="#729faf" stroke="#729faf" stroke-width="1.51"/><path d="M791,648L852,643L855,551Z" fill="#80adb2" stroke="#80adb2" stroke-width="1.51"/><path d="M833,467L877,389L744,398Z" fill="#719eae" stroke="#719eae" stroke-width="1.51"/><path d="M772,292L653,298L672,390Z" fill="#6592ab" stroke="#6592ab" stroke-width="1.51"/><path d="M947,522L877,389L833,467Z" fill="#77a4b0" stroke="#77a4b0" stroke-width="1.51"/><path d="M947,522L833,467L855,551Z" fill="#7ba7b1" stroke="#7ba7b1" stroke-width="1.51"/><path d="M566,430L502,467L604,511Z" fill="#6996ac" stroke="#6996ac" stroke-width="1.51"/><path d="M672,390L562,327L566,430Z" fill="#6592ab" stroke="#6592ab" stroke-width="1.51"/><path d="M566,430L496,420L502,467Z" fill="#6593ab" stroke="#6593ab" stroke-width="1.51"/><path d="M772,292L672,390L744,398Z" fill="#6996ac" stroke="#6996ac" stroke-width="1.51"/><path d="M588,737L662,727L649,637Z" fill="#7daab1" stroke="#7daab1" stroke-width="1.51"/><path d="M791,648L838,731L852,643Z" fill="#83b1b3" stroke="#83b1b3" stroke-width="1.51"/><path d="M877,389L840,326L744,398Z" fill="#6e9bae" stroke="#6e9bae" stroke-width="1.51"/><path d="M840,326L772,292L744,398Z" fill="#6a97ad" stroke="#6a97ad" stroke-width="1.51"/><path d="M562,327L496,420L566,430Z" fill="#6290ab" stroke="#6290ab" stroke-width="1.51"/><path d="M653,298L562,327L672,390Z" fill="#6390ab" stroke="#6390ab" stroke-width="1.51"/><path d="M942,570L947,522L855,551Z" fill="#7facb2" stroke="#7facb2" stroke-width="1.51"/><path d="M852,643L942,570L855,551Z" fill="#80adb2" stroke="#80adb2" stroke-width="1.51"/><path d="M502,467L480,585L574,571Z" fill="#6c9aad" stroke="#6c9aad" stroke-width="1.51"/><path d="M570,641L588,737L649,637Z" fill="#79a7b0" stroke="#79a7b0" stroke-width="1.51"/><path d="M438,595L480,585L410,473Z" fill="#6a97ac" stroke="#6a97ac" stroke-width="1.51"/><path d="M772,292L738,262L653,298Z" fill="#6390ab" stroke="#6390ab" stroke-width="1.51"/><path d="M653,298L596,263L562,327Z" fill="#5e8caa" stroke="#5e8caa" stroke-width="1.51"/><path d="M829,206L738,262L772,292Z" fill="#6391ab" stroke="#6391ab" stroke-width="1.51"/><path d="M793,753L838,731L791,648Z" fill="#85b3b3" stroke="#85b3b3" stroke-width="1.51"/><path d="M852,643L918,679L942,570Z" fill="#84b1b3" stroke="#84b1b3" stroke-width="1.51"/><path d="M662,727L793,753L791,648Z" fill="#82b0b2" stroke="#82b0b2" stroke-width="1.51"/><path d="M484,681L588,737L570,641Z" fill="#78a5b0" stroke="#78a5b0" stroke-width="1.51"/><path d="M679,863L792,837L793,753Z" fill="#89b8b4" stroke="#89b8b4" stroke-width="1.51"/><path d="M838,731L918,679L852,643Z" fill="#86b4b3" stroke="#86b4b3" stroke-width="1.51"/><path d="M408,416L410,473L496,420Z" fill="#618faa" stroke="#618faa" stroke-width="1.51"/><path d="M697,226L596,263L653,298Z" fill="#5d8caa" stroke="#5d8caa" stroke-width="1.51"/><path d="M947,522L952,382L877,389Z" fill="#77a4b0" stroke="#77a4b0" stroke-width="1.51"/><path d="M877,389L956,294L840,326Z" fill="#6e9bae" stroke="#6e9bae" stroke-width="1.51"/><path d="M763,165L697,226L738,262Z" fill="#5e8caa" stroke="#5e8caa" stroke-width="1.51"/><path d="M480,585L484,681L570,641Z" fill="#72a0af" stroke="#72a0af" stroke-width="1.51"/><path d="M480,585L438,595L484,681Z" fill="#6f9dae" stroke="#6f9dae" stroke-width="1.51"/><path d="M410,473L480,585L502,467Z" fill="#6895ac" stroke="#6895ac" stroke-width="1.51"/><path d="M738,262L697,226L653,298Z" fill="#608eaa" stroke="#608eaa" stroke-width="1.51"/><path d="M829,206L772,292L840,326Z" fill="#6694ac" stroke="#6694ac" stroke-width="1.51"/><path d="M942,570L995,561L947,522Z" fill="#81aeb2" stroke="#81aeb2" stroke-width="1.51"/><path d="M947,522L1042,514L952,382Z" fill="#7ca9b1" stroke="#7ca9b1" stroke-width="1.51"/><path d="M1039,654L995,561L942,570Z" fill="#85b3b3" stroke="#85b3b3" stroke-width="1.51"/><path d="M496,420L410,473L502,467Z" fill="#6392ab" stroke="#6392ab" stroke-width="1.51"/><path d="M480,311L496,420L562,327Z" fill="#5f8caa" stroke="#5f8caa" stroke-width="1.51"/><path d="M521,205L480,311L562,327Z" fill="#5988a9" stroke="#5988a9" stroke-width="1.51"/><path d="M437,345L408,416L496,420Z" fill="#5e8caa" stroke="#5e8caa" stroke-width="1.51"/><path d="M480,311L437,345L496,420Z" fill="#5d8ba9" stroke="#5d8ba9" stroke-width="1.51"/><path d="M679,863L793,753L662,727Z" fill="#86b4b3" stroke="#86b4b3" stroke-width="1.51"/><path d="M484,681L491,747L588,737Z" fill="#79a7b0" stroke="#79a7b0" stroke-width="1.51"/><path d="M442,764L491,747L484,681Z" fill="#78a5b0" stroke="#78a5b0" stroke-width="1.51"/><path d="M944,247L829,206L840,326Z" fill="#6896ac" stroke="#6896ac" stroke-width="1.51"/><path d="M952,382L956,294L877,389Z" fill="#719fae" stroke="#719fae" stroke-width="1.51"/><path d="M1037,316L956,294L952,382Z" fill="#72a0ae" stroke="#72a0ae" stroke-width="1.51"/><path d="M995,561L1042,514L947,522Z" fill="#81aeb2" stroke="#81aeb2" stroke-width="1.51"/><path d="M1079,568L1042,514L995,561Z" fill="#84b1b3" stroke="#84b1b3" stroke-width="1.51"/><path d="M918,679L1039,654L942,570Z" fill="#86b4b4" stroke="#86b4b4" stroke-width="1.51"/><path d="M838,731L923,768L918,679Z" fill="#89b8b4" stroke="#89b8b4" stroke-width="1.51"/><path d="M873,848L923,768L838,731Z" fill="#8dbbb5" stroke="#8dbbb5" stroke-width="1.51"/><path d="M873,848L838,731L793,753Z" fill="#8ab9b4" stroke="#8ab9b4" stroke-width="1.51"/><path d="M679,863L662,727L588,737Z" fill="#82b0b2" stroke="#82b0b2" stroke-width="1.51"/><path d="M1042,514L1032,383L952,382Z" fill="#7aa7b1" stroke="#7aa7b1" stroke-width="1.51"/><path d="M438,595L399,670L484,681Z" fill="#709eae" stroke="#709eae" stroke-width="1.51"/><path d="M360,587L399,670L438,595Z" fill="#6c9aad" stroke="#6c9aad" stroke-width="1.51"/><path d="M360,587L438,595L346,522Z" fill="#6896ac" stroke="#6896ac" stroke-width="1.51"/><path d="M697,226L600,171L596,263Z" fill="#5a88a9" stroke="#5a88a9" stroke-width="1.51"/><path d="M596,263L521,205L562,327Z" fill="#5a88a9" stroke="#5a88a9" stroke-width="1.51"/><path d="M829,206L763,165L738,262Z" fill="#608eaa" stroke="#608eaa" stroke-width="1.51"/><path d="M956,294L944,247L840,326Z" fill="#6c99ad" stroke="#6c99ad" stroke-width="1.51"/><path d="M829,206L822,154L763,165Z" fill="#5e8daa" stroke="#5e8daa" stroke-width="1.51"/><path d="M1027,214L944,247L956,294Z" fill="#6c9aad" stroke="#6c9aad" stroke-width="1.51"/><path d="M571,855L679,863L588,737Z" fill="#83b2b3" stroke="#83b2b3" stroke-width="1.51"/><path d="M648,152L600,171L697,226Z" fill="#5787a8" stroke="#5787a8" stroke-width="1.51"/><path d="M480,311L419,258L437,345Z" fill="#5786a8" stroke="#5786a8" stroke-width="1.51"/><path d="M346,522L438,595L410,473Z" fill="#6694ab" stroke="#6694ab" stroke-width="1.51"/><path d="M600,171L521,205L596,263Z" fill="#5685a8" stroke="#5685a8" stroke-width="1.51"/><path d="M1030,772L1039,654L918,679Z" fill="#8cbab5" stroke="#8cbab5" stroke-width="1.51"/><path d="M340,382L410,473L408,416Z" fill="#5d8caa" stroke="#5d8caa" stroke-width="1.51"/><path d="M340,382L346,522L410,473Z" fill="#5f8eaa" stroke="#5f8eaa" stroke-width="1.51"/><path d="M763,165L648,152L697,226Z" fill="#5a89a9" stroke="#5a89a9" stroke-width="1.51"/><path d="M491,747L499,816L588,737Z" fill="#7daab1" stroke="#7daab1" stroke-width="1.51"/><path d="M399,670L442,764L484,681Z" fill="#75a2af" stroke="#75a2af" stroke-width="1.51"/><path d="M307,768L442,764L399,670Z" fill="#74a1af" stroke="#74a1af" stroke-width="1.51"/><path d="M442,764L499,816L491,747Z" fill="#7ba8b0" stroke="#7ba8b0" stroke-width="1.51"/><path d="M499,816L571,855L588,737Z" fill="#80aeb2" stroke="#80aeb2" stroke-width="1.51"/><path d="M952,160L822,154L829,206Z" fill="#628fab" stroke="#628fab" stroke-width="1.51"/><path d="M763,165L765,71L648,152Z" fill="#5787a8" stroke="#5787a8" stroke-width="1.51"/><path d="M1039,654L1079,568L995,561Z" fill="#87b5b3" stroke="#87b5b3" stroke-width="1.51"/><path d="M1042,514L1122,496L1032,383Z" fill="#7facb2" stroke="#7facb2" stroke-width="1.51"/><path d="M792,837L873,848L793,753Z" fill="#8cbbb5" stroke="#8cbbb5" stroke-width="1.51"/><path d="M923,768L1030,772L918,679Z" fill="#8dbbb5" stroke="#8dbbb5" stroke-width="1.51"/><path d="M844,912L873,848L792,837Z" fill="#90c0b6" stroke="#90c0b6" stroke-width="1.51"/><path d="M944,247L952,160L829,206Z" fill="#6694ac" stroke="#6694ac" stroke-width="1.51"/><path d="M1032,383L1037,316L952,382Z" fill="#75a3af" stroke="#75a3af" stroke-width="1.51"/><path d="M1103,300L1037,316L1032,383Z" fill="#76a3af" stroke="#76a3af" stroke-width="1.51"/><path d="M360,587L356,658L399,670Z" fill="#6d9aad" stroke="#6d9aad" stroke-width="1.51"/><path d="M243,639L356,658L360,587Z" fill="#6a97ad" stroke="#6a97ad" stroke-width="1.51"/><path d="M437,345L340,382L408,416Z" fill="#5b89a9" stroke="#5b89a9" stroke-width="1.51"/><path d="M521,205L419,258L480,311Z" fill="#5584a8" stroke="#5584a8" stroke-width="1.51"/><path d="M873,848L955,814L923,768Z" fill="#90bfb6" stroke="#90bfb6" stroke-width="1.51"/><path d="M339,336L340,382L437,345Z" fill="#5786a8" stroke="#5786a8" stroke-width="1.51"/><path d="M754,954L844,912L792,837Z" fill="#91c0b6" stroke="#91c0b6" stroke-width="1.51"/><path d="M571,855L657,916L679,863Z" fill="#89b7b4" stroke="#89b7b4" stroke-width="1.51"/><path d="M562,928L657,916L571,855Z" fill="#89b7b4" stroke="#89b7b4" stroke-width="1.51"/><path d="M419,258L339,336L437,345Z" fill="#5585a8" stroke="#5585a8" stroke-width="1.51"/><path d="M1079,568L1122,496L1042,514Z" fill="#84b2b3" stroke="#84b2b3" stroke-width="1.51"/><path d="M1181,522L1122,496L1079,568Z" fill="#86b4b3" stroke="#86b4b3" stroke-width="1.51"/><path d="M1116,648L1079,568L1039,654Z" fill="#8bb8b4" stroke="#8bb8b4" stroke-width="1.51"/><path d="M955,814L1030,772L923,768Z" fill="#90c0b6" stroke="#90c0b6" stroke-width="1.51"/><path d="M523,945L562,928L571,855Z" fill="#87b5b3" stroke="#87b5b3" stroke-width="1.51"/><path d="M442,764L434,821L499,816Z" fill="#7caab1" stroke="#7caab1" stroke-width="1.51"/><path d="M324,831L434,821L442,764Z" fill="#7aa8b0" stroke="#7aa8b0" stroke-width="1.51"/><path d="M521,205L444,146L419,258Z" fill="#5080a7" stroke="#5080a7" stroke-width="1.51"/><path d="M419,258L337,263L339,336Z" fill="#5282a7" stroke="#5282a7" stroke-width="1.51"/><path d="M600,171L500,149L521,205Z" fill="#5182a7" stroke="#5182a7" stroke-width="1.51"/><path d="M596,58L500,149L600,171Z" fill="#4f7fa6" stroke="#4f7fa6" stroke-width="1.51"/><path d="M596,58L600,171L648,152Z" fill="#5181a7" stroke="#5181a7" stroke-width="1.51"/><path d="M873,848L908,909L955,814Z" fill="#93c2b7" stroke="#93c2b7" stroke-width="1.51"/><path d="M955,814L1036,844L1030,772Z" fill="#94c3b7" stroke="#94c3b7" stroke-width="1.51"/><path d="M754,954L792,837L679,863Z" fill="#8ebcb5" stroke="#8ebcb5" stroke-width="1.51"/><path d="M1014,174L952,160L944,247Z" fill="#6795ac" stroke="#6795ac" stroke-width="1.51"/><path d="M1136,751L1116,648L1039,654Z" fill="#8fbeb5" stroke="#8fbeb5" stroke-width="1.51"/><path d="M1037,316L1027,214L956,294Z" fill="#6f9dae" stroke="#6f9dae" stroke-width="1.51"/><path d="M1103,300L1027,214L1037,316Z" fill="#729fae" stroke="#729fae" stroke-width="1.51"/><path d="M1122,496L1131,391L1032,383Z" fill="#7dabb1" stroke="#7dabb1" stroke-width="1.51"/><path d="M1182,383L1131,391L1122,496Z" fill="#7faeb2" stroke="#7faeb2" stroke-width="1.51"/><path d="M657,916L754,954L679,863Z" fill="#8dbbb5" stroke="#8dbbb5" stroke-width="1.51"/><path d="M523,945L571,855L499,816Z" fill="#83b2b2" stroke="#83b2b2" stroke-width="1.51"/><path d="M824,74L765,71L822,154Z" fill="#5888a8" stroke="#5888a8" stroke-width="1.51"/><path d="M822,154L765,71L763,165Z" fill="#5a89a9" stroke="#5a89a9" stroke-width="1.51"/><path d="M844,912L908,909L873,848Z" fill="#93c3b7" stroke="#93c3b7" stroke-width="1.51"/><path d="M906,1005L908,909L844,912Z" fill="#94c4b7" stroke="#94c4b7" stroke-width="1.51"/><path d="M747,1014L754,954L700,1019Z" fill="#8ebdb5" stroke="#8ebdb5" stroke-width="1.51"/><path d="M1131,391L1103,300L1032,383Z" fill="#78a6b0" stroke="#78a6b0" stroke-width="1.51"/><path d="M333,169L337,263L419,258Z" fill="#4d7ea6" stroke="#4d7ea6" stroke-width="1.51"/><path d="M228,509L346,522L223,426Z" fill="#5d8ba9" stroke="#5d8ba9" stroke-width="1.51"/><path d="M500,149L444,146L521,205Z" fill="#4e7fa6" stroke="#4e7fa6" stroke-width="1.51"/><path d="M478,37L444,146L500,149Z" fill="#487aa5" stroke="#487aa5" stroke-width="1.51"/><path d="M926,75L824,74L822,154Z" fill="#5b8aa9" stroke="#5b8aa9" stroke-width="1.51"/><path d="M1027,214L1014,174L944,247Z" fill="#6a98ac" stroke="#6a98ac" stroke-width="1.51"/><path d="M952,160L926,75L822,154Z" fill="#608eaa" stroke="#608eaa" stroke-width="1.51"/><path d="M1099,156L1014,174L1027,214Z" fill="#6a98ac" stroke="#6a98ac" stroke-width="1.51"/><path d="M650,33L596,58L648,152Z" fill="#4e7fa6" stroke="#4e7fa6" stroke-width="1.51"/><path d="M650,33L648,152L765,71Z" fill="#5282a7" stroke="#5282a7" stroke-width="1.51"/><path d="M1030,772L1136,751L1039,654Z" fill="#91bfb6" stroke="#91bfb6" stroke-width="1.51"/><path d="M908,909L1036,844L955,814Z" fill="#95c4b7" stroke="#95c4b7" stroke-width="1.51"/><path d="M1184,595L1181,522L1079,568Z" fill="#89b7b4" stroke="#89b7b4" stroke-width="1.51"/><path d="M1189,301L1102,220L1103,300Z" fill="#74a2af" stroke="#74a2af" stroke-width="1.51"/><path d="M1184,595L1079,568L1116,648Z" fill="#8bb9b5" stroke="#8bb9b5" stroke-width="1.51"/><path d="M422,927L523,945L499,816Z" fill="#83b1b2" stroke="#83b1b2" stroke-width="1.51"/><path d="M700,1019L754,954L657,916Z" fill="#8dbcb5" stroke="#8dbcb5" stroke-width="1.51"/><path d="M356,658L307,768L399,670Z" fill="#709eae" stroke="#709eae" stroke-width="1.51"/><path d="M434,821L422,927L499,816Z" fill="#7fadb2" stroke="#7fadb2" stroke-width="1.51"/><path d="M243,639L307,768L356,658Z" fill="#6d9bad" stroke="#6d9bad" stroke-width="1.51"/><path d="M243,639L360,587L225,564Z" fill="#6593ac" stroke="#6593ac" stroke-width="1.51"/><path d="M346,522L340,382L223,426Z" fill="#5b8aa9" stroke="#5b8aa9" stroke-width="1.51"/><path d="M223,426L340,382L219,339Z" fill="#5484a7" stroke="#5484a7" stroke-width="1.51"/><path d="M672,-12L650,33L765,71Z" fill="#4e7ea6" stroke="#4e7ea6" stroke-width="1.51"/><path d="M1222,676L1184,595L1116,648Z" fill="#8fbeb6" stroke="#8fbeb6" stroke-width="1.51"/><path d="M225,564L360,587L346,522Z" fill="#6492ab" stroke="#6492ab" stroke-width="1.51"/><path d="M754,-24L672,-12L765,71Z" fill="#4e7ea6" stroke="#4e7ea6" stroke-width="1.51"/><path d="M1006,69L926,75L952,160Z" fill="#608faa" stroke="#608faa" stroke-width="1.51"/><path d="M228,509L225,564L346,522Z" fill="#608faa" stroke="#608faa" stroke-width="1.51"/><path d="M1014,174L1006,69L952,160Z" fill="#6492ab" stroke="#6492ab" stroke-width="1.51"/><path d="M1103,300L1102,220L1027,214Z" fill="#709dae" stroke="#709dae" stroke-width="1.51"/><path d="M1189,301L1103,300L1131,391Z" fill="#79a7b0" stroke="#79a7b0" stroke-width="1.51"/><path d="M1181,522L1182,383L1122,496Z" fill="#83b1b3" stroke="#83b1b3" stroke-width="1.51"/><path d="M1189,301L1274,320L1217,245Z" fill="#7aa7b0" stroke="#7aa7b0" stroke-width="1.51"/><path d="M1082,838L1136,751L1030,772Z" fill="#95c5b7" stroke="#95c5b7" stroke-width="1.51"/><path d="M228,509L172,580L225,564Z" fill="#5f8daa" stroke="#5f8daa" stroke-width="1.51"/><path d="M219,339L340,382L339,336Z" fill="#5483a7" stroke="#5483a7" stroke-width="1.51"/><path d="M1036,844L1082,838L1030,772Z" fill="#96c6b7" stroke="#96c6b7" stroke-width="1.51"/><path d="M1102,921L1082,838L1036,844Z" fill="#9acab8" stroke="#9acab8" stroke-width="1.51"/><path d="M307,768L324,831L442,764Z" fill="#77a4b0" stroke="#77a4b0" stroke-width="1.51"/><path d="M231,851L324,831L307,768Z" fill="#75a3b0" stroke="#75a3b0" stroke-width="1.51"/><path d="M854,1039L906,1005L844,912Z" fill="#94c3b7" stroke="#94c3b7" stroke-width="1.51"/><path d="M908,909L1023,950L1036,844Z" fill="#99c9b8" stroke="#99c9b8" stroke-width="1.51"/><path d="M700,1019L657,916L567,1020Z" fill="#8bb9b4" stroke="#8bb9b4" stroke-width="1.51"/><path d="M567,1020L657,916L562,928Z" fill="#88b7b4" stroke="#88b7b4" stroke-width="1.51"/><path d="M355,917L422,927L434,821Z" fill="#80adb2" stroke="#80adb2" stroke-width="1.51"/><path d="M444,146L333,169L419,258Z" fill="#4b7da5" stroke="#4b7da5" stroke-width="1.51"/><path d="M337,263L219,339L339,336Z" fill="#5080a7" stroke="#5080a7" stroke-width="1.51"/><path d="M359,56L333,169L444,146Z" fill="#4477a4" stroke="#4477a4" stroke-width="1.51"/><path d="M478,37L500,149L596,58Z" fill="#497aa5" stroke="#497aa5" stroke-width="1.51"/><path d="M567,1020L562,928L523,945Z" fill="#87b5b3" stroke="#87b5b3" stroke-width="1.51"/><path d="M225,203L219,339L337,263Z" fill="#4a7ca5" stroke="#4a7ca5" stroke-width="1.51"/><path d="M223,426L186,483L228,509Z" fill="#5988a8" stroke="#5988a8" stroke-width="1.51"/><path d="M1195,865L1175,748L1136,751Z" fill="#99c9b8" stroke="#99c9b8" stroke-width="1.51"/><path d="M1136,751L1175,748L1116,648Z" fill="#93c2b6" stroke="#93c2b6" stroke-width="1.51"/><path d="M157,403L186,483L223,426Z" fill="#5584a8" stroke="#5584a8" stroke-width="1.51"/><path d="M225,564L181,641L243,639Z" fill="#6492ab" stroke="#6492ab" stroke-width="1.51"/><path d="M1182,383L1189,301L1131,391Z" fill="#7caab1" stroke="#7caab1" stroke-width="1.51"/><path d="M1290,426L1182,383L1181,522Z" fill="#84b2b3" stroke="#84b2b3" stroke-width="1.51"/><path d="M650,33L594,-12L596,58Z" fill="#497aa5" stroke="#497aa5" stroke-width="1.51"/><path d="M754,-24L765,71L824,74Z" fill="#5383a7" stroke="#5383a7" stroke-width="1.51"/><path d="M524,-22L478,37L596,58Z" fill="#4477a4" stroke="#4477a4" stroke-width="1.51"/><path d="M1102,220L1099,156L1027,214Z" fill="#6c9aad" stroke="#6c9aad" stroke-width="1.51"/><path d="M1179,158L1099,156L1102,220Z" fill="#6e9bad" stroke="#6e9bad" stroke-width="1.51"/><path d="M481,1030L567,1020L523,945Z" fill="#86b4b3" stroke="#86b4b3" stroke-width="1.51"/><path d="M854,1039L754,954L747,1014Z" fill="#91c0b6" stroke="#91c0b6" stroke-width="1.51"/><path d="M854,1039L844,912L754,954Z" fill="#92c1b6" stroke="#92c1b6" stroke-width="1.51"/><path d="M836,-56L754,-24L824,74Z" fill="#5081a6" stroke="#5081a6" stroke-width="1.51"/><path d="M1099,156L1006,69L1014,174Z" fill="#6694ab" stroke="#6694ab" stroke-width="1.51"/><path d="M672,-12L594,-12L650,33Z" fill="#487aa5" stroke="#487aa5" stroke-width="1.51"/><path d="M836,-56L824,74L926,75Z" fill="#5686a8" stroke="#5686a8" stroke-width="1.51"/><path d="M608,-109L524,-22L594,-12Z" fill="#4477a4" stroke="#4477a4" stroke-width="1.51"/><path d="M429,1017L481,1030L523,945Z" fill="#83b1b3" stroke="#83b1b3" stroke-width="1.51"/><path d="M324,831L355,917L434,821Z" fill="#7ca9b1" stroke="#7ca9b1" stroke-width="1.51"/><path d="M240,916L355,917L324,831Z" fill="#7ba9b1" stroke="#7ba9b1" stroke-width="1.51"/><path d="M1184,595L1253,561L1181,522Z" fill="#8bbab5" stroke="#8bbab5" stroke-width="1.51"/><path d="M1175,748L1222,676L1116,648Z" fill="#93c2b7" stroke="#93c2b7" stroke-width="1.51"/><path d="M1082,838L1195,865L1136,751Z" fill="#99cab8" stroke="#99cab8" stroke-width="1.51"/><path d="M906,1005L1023,950L908,909Z" fill="#97c7b7" stroke="#97c7b7" stroke-width="1.51"/><path d="M243,639L215,772L307,768Z" fill="#6d9bad" stroke="#6d9bad" stroke-width="1.51"/><path d="M186,483L172,580L228,509Z" fill="#5c8ba9" stroke="#5c8ba9" stroke-width="1.51"/><path d="M172,580L181,641L225,564Z" fill="#618faa" stroke="#618faa" stroke-width="1.51"/><path d="M1261,657L1253,561L1184,595Z" fill="#8fbeb6" stroke="#8fbeb6" stroke-width="1.51"/><path d="M906,1005L1037,1039L1023,950Z" fill="#99c9b8" stroke="#99c9b8" stroke-width="1.51"/><path d="M700,1019L854,1039L747,1014Z" fill="#90beb6" stroke="#90beb6" stroke-width="1.51"/><path d="M481,1030L854,1039L700,1019Z" fill="#8cbbb5" stroke="#8cbbb5" stroke-width="1.51"/><path d="M184,761L215,772L243,639Z" fill="#6c99ad" stroke="#6c99ad" stroke-width="1.51"/><path d="M186,483L94,493L172,580Z" fill="#5a88a9" stroke="#5a88a9" stroke-width="1.51"/><path d="M219,339L157,403L223,426Z" fill="#5182a7" stroke="#5182a7" stroke-width="1.51"/><path d="M141,301L157,403L219,339Z" fill="#4d7ea6" stroke="#4d7ea6" stroke-width="1.51"/><path d="M608,-109L594,-12L672,-12Z" fill="#4779a5" stroke="#4779a5" stroke-width="1.51"/><path d="M594,-12L524,-22L596,58Z" fill="#4478a4" stroke="#4478a4" stroke-width="1.51"/><path d="M478,37L393,35L444,146Z" fill="#4376a4" stroke="#4376a4" stroke-width="1.51"/><path d="M429,1017L523,945L422,927Z" fill="#83b1b3" stroke="#83b1b3" stroke-width="1.51"/><path d="M567,1020L481,1030L700,1019Z" fill="#88b6b4" stroke="#88b6b4" stroke-width="1.51"/><path d="M1023,950L1102,921L1036,844Z" fill="#9bccb9" stroke="#9bccb9" stroke-width="1.51"/><path d="M1275,773L1261,657L1222,676Z" fill="#97c6b7" stroke="#97c6b7" stroke-width="1.51"/><path d="M1104,1016L1102,921L1023,950Z" fill="#9ccdb9" stroke="#9ccdb9" stroke-width="1.51"/><path d="M333,169L225,203L337,263Z" fill="#487aa5" stroke="#487aa5" stroke-width="1.51"/><path d="M439,-35L393,35L478,37Z" fill="#3d73a2" stroke="#3d73a2" stroke-width="1.51"/><path d="M1222,676L1261,657L1184,595Z" fill="#91c1b6" stroke="#91c1b6" stroke-width="1.51"/><path d="M1275,773L1222,676L1175,748Z" fill="#98c7b8" stroke="#98c7b8" stroke-width="1.51"/><path d="M1189,301L1217,245L1102,220Z" fill="#75a2af" stroke="#75a2af" stroke-width="1.51"/><path d="M1099,156L1114,43L1006,69Z" fill="#6592ab" stroke="#6592ab" stroke-width="1.51"/><path d="M1274,320L1189,301L1182,383Z" fill="#7daab1" stroke="#7daab1" stroke-width="1.51"/><path d="M226,121L225,203L333,169Z" fill="#4175a3" stroke="#4175a3" stroke-width="1.51"/><path d="M393,35L359,56L444,146Z" fill="#4175a3" stroke="#4175a3" stroke-width="1.51"/><path d="M355,917L429,1017L422,927Z" fill="#81aeb2" stroke="#81aeb2" stroke-width="1.51"/><path d="M336,1037L429,1017L355,917Z" fill="#7fadb2" stroke="#7fadb2" stroke-width="1.51"/><path d="M952,-48L836,-56L926,75Z" fill="#5685a8" stroke="#5685a8" stroke-width="1.51"/><path d="M754,-24L749,-86L672,-12Z" fill="#4c7ea6" stroke="#4c7ea6" stroke-width="1.51"/><path d="M215,772L231,851L307,768Z" fill="#73a0af" stroke="#73a0af" stroke-width="1.51"/><path d="M181,641L184,761L243,639Z" fill="#6895ac" stroke="#6895ac" stroke-width="1.51"/><path d="M76,674L184,761L181,641Z" fill="#6694ac" stroke="#6694ac" stroke-width="1.51"/><path d="M76,674L181,641L172,580Z" fill="#628faa" stroke="#628faa" stroke-width="1.51"/><path d="M1253,561L1294,484L1181,522Z" fill="#8ab9b4" stroke="#8ab9b4" stroke-width="1.51"/><path d="M1338,503L1294,484L1253,561Z" fill="#8cbbb5" stroke="#8cbbb5" stroke-width="1.51"/><path d="M132,848L231,851L215,772Z" fill="#729faf" stroke="#729faf" stroke-width="1.51"/><path d="M1294,484L1290,426L1181,522Z" fill="#88b6b4" stroke="#88b6b4" stroke-width="1.51"/><path d="M1217,245L1179,158L1102,220Z" fill="#729fae" stroke="#729fae" stroke-width="1.51"/><path d="M1006,69L952,-48L926,75Z" fill="#5b8aa9" stroke="#5b8aa9" stroke-width="1.51"/><path d="M1217,245L1271,175L1179,158Z" fill="#72a0ae" stroke="#72a0ae" stroke-width="1.51"/><path d="M1290,426L1274,320L1182,383Z" fill="#81afb2" stroke="#81afb2" stroke-width="1.51"/><path d="M836,-56L749,-86L754,-24Z" fill="#4f80a6" stroke="#4f80a6" stroke-width="1.51"/><path d="M1102,921L1195,865L1082,838Z" fill="#9dcdb9" stroke="#9dcdb9" stroke-width="1.51"/><path d="M141,256L141,301L219,339Z" fill="#487aa5" stroke="#487aa5" stroke-width="1.51"/><path d="M157,403L94,493L186,483Z" fill="#5484a8" stroke="#5484a8" stroke-width="1.51"/><path d="M273,-3L239,47L359,56Z" fill="#356ea1" stroke="#356ea1" stroke-width="1.51"/><path d="M359,56L226,121L333,169Z" fill="#3f74a3" stroke="#3f74a3" stroke-width="1.51"/><path d="M524,-22L439,-35L478,37Z" fill="#3e74a3" stroke="#3e74a3" stroke-width="1.51"/><path d="M428,-100L439,-35L498,-128Z" fill="#3d72a3" stroke="#3d72a3" stroke-width="1.51"/><path d="M832,-127L699,-119L749,-86Z" fill="#4e7fa6" stroke="#4e7fa6" stroke-width="1.51"/><path d="M1021,-56L952,-48L1006,69Z" fill="#5a89a9" stroke="#5a89a9" stroke-width="1.51"/><path d="M49,411L94,493L157,403Z" fill="#5080a6" stroke="#5080a6" stroke-width="1.51"/><path d="M1179,158L1114,43L1099,156Z" fill="#6a97ac" stroke="#6a97ac" stroke-width="1.51"/><path d="M1173,46L1114,43L1179,158Z" fill="#6896ac" stroke="#6896ac" stroke-width="1.51"/><path d="M132,848L240,916L231,851Z" fill="#76a3af" stroke="#76a3af" stroke-width="1.51"/><path d="M231,851L240,916L324,831Z" fill="#78a5b0" stroke="#78a5b0" stroke-width="1.51"/><path d="M239,47L226,121L359,56Z" fill="#3970a2" stroke="#3970a2" stroke-width="1.51"/><path d="M225,203L141,256L219,339Z" fill="#4779a5" stroke="#4779a5" stroke-width="1.51"/><path d="M854,1039L1037,1039L906,1005Z" fill="#96c6b7" stroke="#96c6b7" stroke-width="1.51"/><path d="M1102,921L1211,942L1195,865Z" fill="#a0d1ba" stroke="#a0d1ba" stroke-width="1.51"/><path d="M169,145L141,256L225,203Z" fill="#4074a3" stroke="#4074a3" stroke-width="1.51"/><path d="M141,301L86,312L157,403Z" fill="#497ba5" stroke="#497ba5" stroke-width="1.51"/><path d="M1387,597L1338,503L1253,561Z" fill="#90bfb6" stroke="#90bfb6" stroke-width="1.51"/><path d="M1259,850L1275,773L1175,748Z" fill="#9cccb9" stroke="#9cccb9" stroke-width="1.51"/><path d="M699,-119L608,-109L672,-12Z" fill="#497ba5" stroke="#497ba5" stroke-width="1.51"/><path d="M1294,484L1338,503L1290,426Z" fill="#89b8b4" stroke="#89b8b4" stroke-width="1.51"/><path d="M1290,426L1381,428L1274,320Z" fill="#84b2b3" stroke="#84b2b3" stroke-width="1.51"/><path d="M1387,597L1253,561L1261,657Z" fill="#92c1b6" stroke="#92c1b6" stroke-width="1.51"/><path d="M749,-86L699,-119L672,-12Z" fill="#4c7da5" stroke="#4c7da5" stroke-width="1.51"/><path d="M832,-127L749,-86L836,-56Z" fill="#5081a6" stroke="#5081a6" stroke-width="1.51"/><path d="M1274,320L1283,248L1217,245Z" fill="#7aa8b0" stroke="#7aa8b0" stroke-width="1.51"/><path d="M1390,306L1283,248L1274,320Z" fill="#7eabb1" stroke="#7eabb1" stroke-width="1.51"/><path d="M94,493L77,562L172,580Z" fill="#5a89a9" stroke="#5a89a9" stroke-width="1.51"/><path d="M184,761L132,848L215,772Z" fill="#6f9cae" stroke="#6f9cae" stroke-width="1.51"/><path d="M-5,502L77,562L94,493Z" fill="#5584a7" stroke="#5584a7" stroke-width="1.51"/><path d="M1195,865L1259,850L1175,748Z" fill="#9dcdb9" stroke="#9dcdb9" stroke-width="1.51"/><path d="M1037,1039L1104,1016L1023,950Z" fill="#9cccb9" stroke="#9cccb9" stroke-width="1.51"/><path d="M952,-48L962,-82L836,-56Z" fill="#5686a8" stroke="#5686a8" stroke-width="1.51"/><path d="M1021,-56L962,-82L952,-48Z" fill="#5988a8" stroke="#5988a8" stroke-width="1.51"/><path d="M429,1017L336,1037L481,1030Z" fill="#81afb2" stroke="#81afb2" stroke-width="1.51"/><path d="M481,1030L336,1037L854,1039Z" fill="#87b5b3" stroke="#87b5b3" stroke-width="1.51"/><path d="M248,1009L336,1037L355,917Z" fill="#7daab1" stroke="#7daab1" stroke-width="1.51"/><path d="M1268,936L1259,850L1195,865Z" fill="#a2d3ba" stroke="#a2d3ba" stroke-width="1.51"/><path d="M1473,483L1381,428L1338,503Z" fill="#8ebcb5" stroke="#8ebcb5" stroke-width="1.51"/><path d="M1114,43L1021,-56L1006,69Z" fill="#5e8daa" stroke="#5e8daa" stroke-width="1.51"/><path d="M962,-82L832,-127L836,-56Z" fill="#5584a7" stroke="#5584a7" stroke-width="1.51"/><path d="M184,87L169,145L226,121Z" fill="#396fa2" stroke="#396fa2" stroke-width="1.51"/><path d="M226,121L169,145L225,203Z" fill="#3d72a3" stroke="#3d72a3" stroke-width="1.51"/><path d="M77,562L76,674L172,580Z" fill="#5e8caa" stroke="#5e8caa" stroke-width="1.51"/><path d="M49,242L86,312L141,256Z" fill="#4175a3" stroke="#4175a3" stroke-width="1.51"/><path d="M141,256L86,312L141,301Z" fill="#4578a4" stroke="#4578a4" stroke-width="1.51"/><path d="M1093,-98L1022,-82L1021,-56Z" fill="#5d8ba9" stroke="#5d8ba9" stroke-width="1.51"/><path d="M1283,248L1271,175L1217,245Z" fill="#76a4af" stroke="#76a4af" stroke-width="1.51"/><path d="M1376,145L1271,175L1283,248Z" fill="#77a4b0" stroke="#77a4b0" stroke-width="1.51"/><path d="M1274,58L1173,46L1179,158Z" fill="#6a98ad" stroke="#6a98ad" stroke-width="1.51"/><path d="M273,-3L359,56L306,-37Z" fill="#346da1" stroke="#346da1" stroke-width="1.51"/><path d="M359,56L393,35L306,-37Z" fill="#386fa2" stroke="#386fa2" stroke-width="1.51"/><path d="M1168,996L1211,942L1102,921Z" fill="#a0d1ba" stroke="#a0d1ba" stroke-width="1.51"/><path d="M86,312L49,411L157,403Z" fill="#4b7da5" stroke="#4b7da5" stroke-width="1.51"/><path d="M77,562L-17,592L76,674Z" fill="#5b8aa9" stroke="#5b8aa9" stroke-width="1.51"/><path d="M1104,1016L1168,996L1102,921Z" fill="#9ecfb9" stroke="#9ecfb9" stroke-width="1.51"/><path d="M1262,994L1168,996L1104,1016Z" fill="#a1d2ba" stroke="#a1d2ba" stroke-width="1.51"/><path d="M240,916L248,1009L355,917Z" fill="#7ba9b1" stroke="#7ba9b1" stroke-width="1.51"/><path d="M71,747L132,848L184,761Z" fill="#6c9aad" stroke="#6c9aad" stroke-width="1.51"/><path d="M962,-82L1022,-82L832,-127Z" fill="#5787a8" stroke="#5787a8" stroke-width="1.51"/><path d="M1021,-56L1022,-82L962,-82Z" fill="#5a89a9" stroke="#5a89a9" stroke-width="1.51"/><path d="M1123,-35L1021,-56L1114,43Z" fill="#5e8daa" stroke="#5e8daa" stroke-width="1.51"/><path d="M498,-128L524,-22L608,-109Z" fill="#4276a4" stroke="#4276a4" stroke-width="1.51"/><path d="M498,-128L439,-35L524,-22Z" fill="#3f74a3" stroke="#3f74a3" stroke-width="1.51"/><path d="M699,-119L498,-128L608,-109Z" fill="#4678a4" stroke="#4678a4" stroke-width="1.51"/><path d="M832,-127L498,-128L699,-119Z" fill="#4a7ba5" stroke="#4a7ba5" stroke-width="1.51"/><path d="M306,-37L393,35L439,-35Z" fill="#386fa2" stroke="#386fa2" stroke-width="1.51"/><path d="M239,47L184,87L226,121Z" fill="#376ea1" stroke="#376ea1" stroke-width="1.51"/><path d="M51,54L184,87L134,-53Z" fill="#29679f" stroke="#29679f" stroke-width="1.51"/><path d="M71,149L49,242L141,256Z" fill="#3b71a2" stroke="#3b71a2" stroke-width="1.51"/><path d="M1338,503L1381,428L1290,426Z" fill="#8ab8b4" stroke="#8ab8b4" stroke-width="1.51"/><path d="M1387,597L1261,657L1374,695Z" fill="#97c7b7" stroke="#97c7b7" stroke-width="1.51"/><path d="M145,955L248,1009L240,916Z" fill="#78a6b0" stroke="#78a6b0" stroke-width="1.51"/><path d="M51,54L71,149L184,87Z" fill="#2f6aa0" stroke="#2f6aa0" stroke-width="1.51"/><path d="M329,-82L306,-37L439,-35Z" fill="#376ea2" stroke="#376ea2" stroke-width="1.51"/><path d="M-10,779L71,747L-40,693Z" fill="#6392ab" stroke="#6392ab" stroke-width="1.51"/><path d="M76,674L71,747L184,761Z" fill="#6895ac" stroke="#6895ac" stroke-width="1.51"/><path d="M1374,695L1261,657L1275,773Z" fill="#99c9b8" stroke="#99c9b8" stroke-width="1.51"/><path d="M1173,46L1123,-35L1114,43Z" fill="#6290ab" stroke="#6290ab" stroke-width="1.51"/><path d="M1191,-23L1123,-35L1173,46Z" fill="#6290ab" stroke="#6290ab" stroke-width="1.51"/><path d="M1395,756L1374,695L1275,773Z" fill="#9dcdb9" stroke="#9dcdb9" stroke-width="1.51"/><path d="M1395,756L1275,773L1360,848Z" fill="#a0d1ba" stroke="#a0d1ba" stroke-width="1.51"/><path d="M1211,942L1268,936L1195,865Z" fill="#a3d4ba" stroke="#a3d4ba" stroke-width="1.51"/><path d="M1262,994L1268,936L1211,942Z" fill="#a3d5ba" stroke="#a3d5ba" stroke-width="1.51"/><path d="M428,-100L329,-82L439,-35Z" fill="#3970a2" stroke="#3970a2" stroke-width="1.51"/><path d="M306,-37L245,-120L273,-3Z" fill="#316ba1" stroke="#316ba1" stroke-width="1.51"/><path d="M245,-120L329,-82L428,-100Z" fill="#356da1" stroke="#356da1" stroke-width="1.51"/><path d="M1448,401L1390,306L1381,428Z" fill="#87b6b3" stroke="#87b6b3" stroke-width="1.51"/><path d="M1381,428L1390,306L1274,320Z" fill="#83b1b2" stroke="#83b1b2" stroke-width="1.51"/><path d="M1274,58L1191,-23L1173,46Z" fill="#6794ac" stroke="#6794ac" stroke-width="1.51"/><path d="M71,149L141,256L169,145Z" fill="#3b71a2" stroke="#3b71a2" stroke-width="1.51"/><path d="M86,312L-1,325L49,411Z" fill="#4679a4" stroke="#4679a4" stroke-width="1.51"/><path d="M71,149L169,145L184,87Z" fill="#366da1" stroke="#366da1" stroke-width="1.51"/><path d="M49,411L-5,502L94,493Z" fill="#5081a6" stroke="#5081a6" stroke-width="1.51"/><path d="M-42,386L-5,502L49,411Z" fill="#4a7ca5" stroke="#4a7ca5" stroke-width="1.51"/><path d="M97,901L145,955L132,848Z" fill="#74a2af" stroke="#74a2af" stroke-width="1.51"/><path d="M132,848L145,955L240,916Z" fill="#76a4af" stroke="#76a4af" stroke-width="1.51"/><path d="M1274,58L1179,158L1271,175Z" fill="#6f9dae" stroke="#6f9dae" stroke-width="1.51"/><path d="M1123,-35L1093,-98L1021,-56Z" fill="#5e8caa" stroke="#5e8caa" stroke-width="1.51"/><path d="M1022,-82L1093,-98L832,-127Z" fill="#5a89a9" stroke="#5a89a9" stroke-width="1.51"/><path d="M1182,-89L1093,-98L1123,-35Z" fill="#618faa" stroke="#618faa" stroke-width="1.51"/><path d="M71,747L70,843L132,848Z" fill="#6d9aad" stroke="#6d9aad" stroke-width="1.51"/><path d="M-10,779L70,843L71,747Z" fill="#6996ac" stroke="#6996ac" stroke-width="1.51"/><path d="M1390,306L1386,255L1283,248Z" fill="#7eabb1" stroke="#7eabb1" stroke-width="1.51"/><path d="M1376,145L1274,58L1271,175Z" fill="#729faf" stroke="#729faf" stroke-width="1.51"/><path d="M70,843L97,901L132,848Z" fill="#709eae" stroke="#709eae" stroke-width="1.51"/><path d="M1428,689L1442,583L1387,597Z" fill="#98c8b8" stroke="#98c8b8" stroke-width="1.51"/><path d="M1387,597L1442,583L1338,503Z" fill="#93c2b6" stroke="#93c2b6" stroke-width="1.51"/><path d="M1360,848L1275,773L1259,850Z" fill="#a1d2b9" stroke="#a1d2b9" stroke-width="1.51"/><path d="M-5,502L-17,592L77,562Z" fill="#5585a7" stroke="#5585a7" stroke-width="1.51"/><path d="M1359,926L1360,848L1259,850Z" fill="#a5d6bb" stroke="#a5d6bb" stroke-width="1.51"/><path d="M134,-53L239,47L273,-3Z" fill="#2c68a0" stroke="#2c68a0" stroke-width="1.51"/><path d="M-105,600L-86,664L-17,592Z" fill="#5a89a9" stroke="#5a89a9" stroke-width="1.51"/><path d="M49,242L-1,325L86,312Z" fill="#4075a3" stroke="#4075a3" stroke-width="1.51"/><path d="M-3,254L-1,325L49,242Z" fill="#3d72a2" stroke="#3d72a2" stroke-width="1.51"/><path d="M1268,936L1359,926L1259,850Z" fill="#a5d7bb" stroke="#a5d7bb" stroke-width="1.51"/><path d="M1168,996L1262,994L1211,942Z" fill="#a2d3ba" stroke="#a2d3ba" stroke-width="1.51"/><path d="M1476,1033L1262,994L1104,1016Z" fill="#a5d6bb" stroke="#a5d6bb" stroke-width="1.51"/><path d="M1428,689L1387,597L1374,695Z" fill="#9acab8" stroke="#9acab8" stroke-width="1.51"/><path d="M1390,306L1425,247L1386,255Z" fill="#80adb2" stroke="#80adb2" stroke-width="1.51"/><path d="M1395,756L1428,689L1374,695Z" fill="#9eceb9" stroke="#9eceb9" stroke-width="1.51"/><path d="M1457,725L1428,689L1395,756Z" fill="#9fd0ba" stroke="#9fd0ba" stroke-width="1.51"/><path d="M248,1009L172,1022L336,1037Z" fill="#7aa7b0" stroke="#7aa7b0" stroke-width="1.51"/><path d="M145,955L172,1022L248,1009Z" fill="#77a5b0" stroke="#77a5b0" stroke-width="1.51"/><path d="M50,981L172,1022L145,955Z" fill="#74a2af" stroke="#74a2af" stroke-width="1.51"/><path d="M1473,483L1448,401L1381,428Z" fill="#8dbbb5" stroke="#8dbbb5" stroke-width="1.51"/><path d="M-14,159L-3,254L49,242Z" fill="#376ea1" stroke="#376ea1" stroke-width="1.51"/><path d="M-1,325L-42,386L49,411Z" fill="#4678a4" stroke="#4678a4" stroke-width="1.51"/><path d="M1277,-25L1182,-89L1191,-23Z" fill="#6592ab" stroke="#6592ab" stroke-width="1.51"/><path d="M1386,255L1376,145L1283,248Z" fill="#7aa7b0" stroke="#7aa7b0" stroke-width="1.51"/><path d="M1425,247L1376,145L1386,255Z" fill="#7caab1" stroke="#7caab1" stroke-width="1.51"/><path d="M-72,393L-42,386L-85,318Z" fill="#4578a4" stroke="#4578a4" stroke-width="1.51"/><path d="M1448,401L1445,310L1390,306Z" fill="#86b4b3" stroke="#86b4b3" stroke-width="1.51"/><path d="M1445,310L1425,247L1390,306Z" fill="#82b0b2" stroke="#82b0b2" stroke-width="1.51"/><path d="M1277,-25L1191,-23L1274,58Z" fill="#6694ab" stroke="#6694ab" stroke-width="1.51"/><path d="M1191,-23L1182,-89L1123,-35Z" fill="#6290ab" stroke="#6290ab" stroke-width="1.51"/><path d="M1093,-98L1287,-127L832,-127Z" fill="#5e8caa" stroke="#5e8caa" stroke-width="1.51"/><path d="M1442,583L1473,483L1338,503Z" fill="#91c1b6" stroke="#91c1b6" stroke-width="1.51"/><path d="M1448,401L1519,392L1445,310Z" fill="#88b7b4" stroke="#88b7b4" stroke-width="1.51"/><path d="M1565,497L1473,483L1567,558Z" fill="#92c1b6" stroke="#92c1b6" stroke-width="1.51"/><path d="M97,901L50,981L145,955Z" fill="#73a1ae" stroke="#73a1ae" stroke-width="1.51"/><path d="M70,843L-25,902L97,901Z" fill="#709dad" stroke="#709dad" stroke-width="1.51"/><path d="M-40,693L71,747L76,674Z" fill="#6290ab" stroke="#6290ab" stroke-width="1.51"/><path d="M-40,693L76,674L-17,592Z" fill="#5d8ba9" stroke="#5d8ba9" stroke-width="1.51"/><path d="M-86,664L-40,693L-17,592Z" fill="#5c8ba9" stroke="#5c8ba9" stroke-width="1.51"/><path d="M1361,981L1359,926L1268,936Z" fill="#a7d9bb" stroke="#a7d9bb" stroke-width="1.51"/><path d="M1460,821L1457,725L1395,756Z" fill="#a3d4ba" stroke="#a3d4ba" stroke-width="1.51"/><path d="M1428,689L1541,649L1442,583Z" fill="#9acbb8" stroke="#9acbb8" stroke-width="1.51"/><path d="M1460,821L1395,756L1360,848Z" fill="#a4d5ba" stroke="#a4d5ba" stroke-width="1.51"/><path d="M1370,0L1277,-25L1274,58Z" fill="#6997ac" stroke="#6997ac" stroke-width="1.51"/><path d="M329,-82L245,-120L306,-37Z" fill="#326ca1" stroke="#326ca1" stroke-width="1.51"/><path d="M71,149L-14,159L49,242Z" fill="#356da1" stroke="#356da1" stroke-width="1.51"/><path d="M498,-128L245,-120L428,-100Z" fill="#3970a2" stroke="#3970a2" stroke-width="1.51"/><path d="M-42,386L-72,393L-5,502Z" fill="#4a7ca5" stroke="#4a7ca5" stroke-width="1.51"/><path d="M-85,318L-42,386L-1,325Z" fill="#4276a4" stroke="#4276a4" stroke-width="1.51"/><path d="M-3,254L-85,318L-1,325Z" fill="#3e73a3" stroke="#3e73a3" stroke-width="1.51"/><path d="M134,-53L184,87L239,47Z" fill="#2e69a0" stroke="#2e69a0" stroke-width="1.51"/><path d="M-10,779L-20,847L70,843Z" fill="#6a97ac" stroke="#6a97ac" stroke-width="1.51"/><path d="M-107,817L-20,847L-10,779Z" fill="#6996ac" stroke="#6996ac" stroke-width="1.51"/><path d="M51,54L-14,159L71,149Z" fill="#2e69a0" stroke="#2e69a0" stroke-width="1.51"/><path d="M1450,911L1460,821L1360,848Z" fill="#a8dabc" stroke="#a8dabc" stroke-width="1.51"/><path d="M1262,994L1361,981L1268,936Z" fill="#a5d7bb" stroke="#a5d7bb" stroke-width="1.51"/><path d="M1476,1033L1361,981L1262,994Z" fill="#a8dabc" stroke="#a8dabc" stroke-width="1.51"/><path d="M157,-87L134,-53L273,-3Z" fill="#2a67a0" stroke="#2a67a0" stroke-width="1.51"/><path d="M-25,902L50,981L97,901Z" fill="#719eae" stroke="#719eae" stroke-width="1.51"/><path d="M-40,693L-112,728L-10,779Z" fill="#6291ab" stroke="#6291ab" stroke-width="1.51"/><path d="M-108,484L-17,592L-5,502Z" fill="#5382a7" stroke="#5382a7" stroke-width="1.51"/><path d="M1565,497L1519,392L1473,483Z" fill="#8ebdb5" stroke="#8ebdb5" stroke-width="1.51"/><path d="M1450,911L1360,848L1359,926Z" fill="#a9dbbc" stroke="#a9dbbc" stroke-width="1.51"/><path d="M245,-120L157,-87L273,-3Z" fill="#2d69a0" stroke="#2d69a0" stroke-width="1.51"/><path d="M134,-53L85,-48L51,54Z" fill="#21639e" stroke="#21639e" stroke-width="1.51"/><path d="M1478,88L1433,138L1512,144Z" fill="#78a5b0" stroke="#78a5b0" stroke-width="1.51"/><path d="M1425,247L1433,138L1376,145Z" fill="#7aa7b0" stroke="#7aa7b0" stroke-width="1.51"/><path d="M1376,145L1397,72L1274,58Z" fill="#729fae" stroke="#729fae" stroke-width="1.51"/><path d="M1433,138L1425,247L1512,144Z" fill="#7ba9b1" stroke="#7ba9b1" stroke-width="1.51"/><path d="M1433,138L1397,72L1376,145Z" fill="#76a3af" stroke="#76a3af" stroke-width="1.51"/><path d="M-72,393L-108,484L-5,502Z" fill="#4d7ea6" stroke="#4d7ea6" stroke-width="1.51"/><path d="M-116,211L-85,318L-3,254Z" fill="#3a71a2" stroke="#3a71a2" stroke-width="1.51"/><path d="M-85,318L-108,484L-72,393Z" fill="#477aa5" stroke="#477aa5" stroke-width="1.51"/><path d="M1541,649L1428,689L1457,725Z" fill="#9dceb9" stroke="#9dceb9" stroke-width="1.51"/><path d="M1473,483L1519,392L1448,401Z" fill="#8cbbb5" stroke="#8cbbb5" stroke-width="1.51"/><path d="M-108,484L-105,600L-17,592Z" fill="#5585a7" stroke="#5585a7" stroke-width="1.51"/><path d="M-20,847L-25,902L70,843Z" fill="#6c9bad" stroke="#6c9bad" stroke-width="1.51"/><path d="M-115,913L-25,902L-20,847Z" fill="#6e9bae" stroke="#6e9bae" stroke-width="1.51"/><path d="M-112,728L-40,693L-86,664Z" fill="#608eaa" stroke="#608eaa" stroke-width="1.51"/><path d="M1397,72L1370,0L1274,58Z" fill="#6e9bad" stroke="#6e9bad" stroke-width="1.51"/><path d="M1277,-25L1287,-127L1182,-89Z" fill="#6694ab" stroke="#6694ab" stroke-width="1.51"/><path d="M1477,-12L1370,0L1397,72Z" fill="#6f9dae" stroke="#6f9dae" stroke-width="1.51"/><path d="M83,-94L85,-48L134,-53Z" fill="#22649e" stroke="#22649e" stroke-width="1.51"/><path d="M51,54L-5,52L-14,159Z" fill="#27669f" stroke="#27669f" stroke-width="1.51"/><path d="M1519,772L1541,649L1457,725Z" fill="#9fd0b9" stroke="#9fd0b9" stroke-width="1.51"/><path d="M1361,981L1450,911L1359,926Z" fill="#a9dbbc" stroke="#a9dbbc" stroke-width="1.51"/><path d="M1519,772L1457,725L1460,821Z" fill="#a3d4ba" stroke="#a3d4ba" stroke-width="1.51"/><path d="M-14,159L-116,211L-3,254Z" fill="#356da1" stroke="#356da1" stroke-width="1.51"/><path d="M-7,-38L-5,52L51,54Z" fill="#1d629e" stroke="#1d629e" stroke-width="1.51"/><path d="M-105,600L-112,728L-86,664Z" fill="#5d8caa" stroke="#5d8caa" stroke-width="1.51"/><path d="M-108,484L-112,728L-105,600Z" fill="#5988a8" stroke="#5988a8" stroke-width="1.51"/><path d="M1556,811L1519,772L1460,821Z" fill="#a5d6bb" stroke="#a5d6bb" stroke-width="1.51"/><path d="M1567,558L1473,483L1442,583Z" fill="#94c3b7" stroke="#94c3b7" stroke-width="1.51"/><path d="M1558,249L1425,247L1445,310Z" fill="#81afb2" stroke="#81afb2" stroke-width="1.51"/><path d="M-25,902L12,1009L50,981Z" fill="#6f9dae" stroke="#6f9dae" stroke-width="1.51"/><path d="M50,981L12,1009L172,1022Z" fill="#72a0af" stroke="#72a0af" stroke-width="1.51"/><path d="M172,1022L-72,1026L336,1037Z" fill="#75a3af" stroke="#75a3af" stroke-width="1.51"/><path d="M-72,1026L12,1009L-25,902Z" fill="#6f9cae" stroke="#6f9cae" stroke-width="1.51"/><path d="M1556,811L1567,558L1541,649Z" fill="#9ccdb9" stroke="#9ccdb9" stroke-width="1.51"/><path d="M1541,649L1567,558L1442,583Z" fill="#97c7b8" stroke="#97c7b8" stroke-width="1.51"/><path d="M1377,-97L1287,-127L1277,-25Z" fill="#6997ac" stroke="#6997ac" stroke-width="1.51"/><path d="M1182,-89L1287,-127L1093,-98Z" fill="#6491ab" stroke="#6491ab" stroke-width="1.51"/><path d="M832,-127L1287,-127L498,-128Z" fill="#5484a7" stroke="#5484a7" stroke-width="1.51"/><path d="M85,-48L-7,-38L51,54Z" fill="#1c619e" stroke="#1c619e" stroke-width="1.51"/><path d="M157,-87L83,-94L134,-53Z" fill="#25659f" stroke="#25659f" stroke-width="1.51"/><path d="M245,-120L83,-94L157,-87Z" fill="#28669f" stroke="#28669f" stroke-width="1.51"/><path d="M-112,728L-107,817L-10,779Z" fill="#6693ab" stroke="#6693ab" stroke-width="1.51"/><path d="M-5,52L-77,123L-14,159Z" fill="#2a679f" stroke="#2a679f" stroke-width="1.51"/><path d="M-85,318L-116,211L-108,484Z" fill="#4276a4" stroke="#4276a4" stroke-width="1.51"/><path d="M-119,64L-77,123L-5,52Z" fill="#25659f" stroke="#25659f" stroke-width="1.51"/><path d="M1370,0L1377,-97L1277,-25Z" fill="#6a98ac" stroke="#6a98ac" stroke-width="1.51"/><path d="M1433,138L1478,88L1397,72Z" fill="#76a3af" stroke="#76a3af" stroke-width="1.51"/><path d="M1569,321L1445,310L1519,392Z" fill="#87b5b3" stroke="#87b5b3" stroke-width="1.51"/><path d="M-77,123L-116,211L-14,159Z" fill="#306aa0" stroke="#306aa0" stroke-width="1.51"/><path d="M-108,484L-116,211L-112,728Z" fill="#4e7fa6" stroke="#4e7fa6" stroke-width="1.51"/><path d="M1565,497L1569,321L1519,392Z" fill="#8bb9b4" stroke="#8bb9b4" stroke-width="1.51"/><path d="M1567,558L1569,321L1565,497Z" fill="#8ebdb5" stroke="#8ebdb5" stroke-width="1.51"/><path d="M1558,249L1512,144L1425,247Z" fill="#7eacb1" stroke="#7eacb1" stroke-width="1.51"/><path d="M1569,321L1558,249L1445,310Z" fill="#83b1b3" stroke="#83b1b3" stroke-width="1.51"/><path d="M1519,772L1556,811L1541,649Z" fill="#a1d2ba" stroke="#a1d2ba" stroke-width="1.51"/><path d="M1521,942L1556,811L1460,821Z" fill="#a9dbbc" stroke="#a9dbbc" stroke-width="1.51"/><path d="M-77,123L-119,64L-116,211Z" fill="#2c68a0" stroke="#2c68a0" stroke-width="1.51"/><path d="M7,-108L-7,-38L85,-48Z" fill="#1b619e" stroke="#1b619e" stroke-width="1.51"/><path d="M1477,-12L1377,-97L1370,0Z" fill="#6d9bad" stroke="#6d9bad" stroke-width="1.51"/><path d="M1477,-12L1397,72L1478,88Z" fill="#72a0af" stroke="#72a0af" stroke-width="1.51"/><path d="M1512,144L1515,89L1478,88Z" fill="#76a4af" stroke="#76a4af" stroke-width="1.51"/><path d="M1558,249L1515,89L1512,144Z" fill="#7aa8b0" stroke="#7aa8b0" stroke-width="1.51"/><path d="M-107,817L-115,913L-20,847Z" fill="#6c99ad" stroke="#6c99ad" stroke-width="1.51"/><path d="M-112,728L-115,913L-107,817Z" fill="#6997ac" stroke="#6997ac" stroke-width="1.51"/><path d="M-129,2L-115,913L-112,728Z" fill="#5584a7" stroke="#5584a7" stroke-width="1.51"/><path d="M1450,911L1521,942L1460,821Z" fill="#abddbc" stroke="#abddbc" stroke-width="1.51"/><path d="M1521,990L1521,942L1450,911Z" fill="#abdebc" stroke="#abdebc" stroke-width="1.51"/><path d="M1361,981L1476,1033L1450,911Z" fill="#abddbc" stroke="#abddbc" stroke-width="1.51"/><path d="M1037,1039L1476,1033L1104,1016Z" fill="#a2d3ba" stroke="#a2d3ba" stroke-width="1.51"/><path d="M1515,89L1477,-12L1478,88Z" fill="#73a0ae" stroke="#73a0ae" stroke-width="1.51"/><path d="M245,-120L7,-108L83,-94Z" fill="#23649f" stroke="#23649f" stroke-width="1.51"/><path d="M83,-94L7,-108L85,-48Z" fill="#1e629e" stroke="#1e629e" stroke-width="1.51"/><path d="M-129,2L-119,64L-5,52Z" fill="#1f629e" stroke="#1f629e" stroke-width="1.51"/><path d="M-115,913L-72,1026L-25,902Z" fill="#6f9cae" stroke="#6f9cae" stroke-width="1.51"/><path d="M12,1009L-72,1026L172,1022Z" fill="#719eae" stroke="#719eae" stroke-width="1.51"/><path d="M-129,2L-5,52L-7,-38Z" fill="#18609d" stroke="#18609d" stroke-width="1.51"/><path d="M-116,211L-129,2L-112,728Z" fill="#4074a3" stroke="#4074a3" stroke-width="1.51"/><path d="M1476,1033L1521,990L1450,911Z" fill="#abdebc" stroke="#abdebc" stroke-width="1.51"/><path d="M1521,942L1521,990L1556,811Z" fill="#abdebc" stroke="#abdebc" stroke-width="1.51"/><path d="M-84,-125L-129,2L-7,-38Z" fill="#17609d" stroke="#17609d" stroke-width="1.51"/><path d="M-119,64L-129,2L-116,211Z" fill="#26669f" stroke="#26669f" stroke-width="1.51"/><path d="M1477,-12L1467,-111L1377,-97Z" fill="#6f9cae" stroke="#6f9cae" stroke-width="1.51"/><path d="M1377,-97L1467,-111L1287,-127Z" fill="#6c99ad" stroke="#6c99ad" stroke-width="1.51"/><path d="M1514,-95L1467,-111L1477,-12Z" fill="#6f9cae" stroke="#6f9cae" stroke-width="1.51"/><path d="M1528,-43L1477,-12L1515,89Z" fill="#709dae" stroke="#709dae" stroke-width="1.51"/><path d="M1569,321L1528,-43L1558,249Z" fill="#7ba9b1" stroke="#7ba9b1" stroke-width="1.51"/><path d="M1558,249L1528,-43L1515,89Z" fill="#76a3af" stroke="#76a3af" stroke-width="1.51"/><path d="M1528,-43L1514,-95L1477,-12Z" fill="#6f9cae" stroke="#6f9cae" stroke-width="1.51"/><path d="M7,-108L-84,-125L-7,-38Z" fill="#17609d" stroke="#17609d" stroke-width="1.51"/><path d="M245,-120L-84,-125L7,-108Z" fill="#1e629e" stroke="#1e629e" stroke-width="1.51"/><path d="M498,-128L-84,-125L245,-120Z" fill="#2d69a0" stroke="#2d69a0" stroke-width="1.51"/></svg>